<?xml version="1.0" standalone="no"?>
<!DOCTYPE svg PUBLIC "-//W3C//DTD SVG 20010904//EN"
 "http://www.w3.org/TR/2001/REC-SVG-20010904/DTD/svg10.dtd">
<svg version="1.0" xmlns="http://www.w3.org/2000/svg"
 width="512.000000pt" height="512.000000pt" viewBox="0 0 512.000000 512.000000"
 preserveAspectRatio="xMidYMid meet">

<g transform="translate(0.000000,512.000000) scale(0.100000,-0.100000)"
fill="#000000" stroke="none">
<path d="M2481 5106 c-49 -18 -111 -74 -132 -120 -23 -51 -25 -143 -3 -194 33
-79 128 -142 214 -142 86 0 181 63 214 142 34 79 15 191 -42 252 -61 64 -170
92 -251 62z m127 -166 c47 -44 15 -130 -48 -130 -38 0 -70 34 -70 75 0 41 32
75 70 75 14 0 36 -9 48 -20z"/>
<path d="M1785 4785 l-25 -24 0 -440 c0 -242 3 -447 6 -456 18 -45 20 -45 794
-45 774 0 776 0 794 45 3 9 6 214 6 456 l0 440 -25 24 c-24 25 -26 25 -204 25
-174 0 -181 -1 -207 -23 -37 -33 -37 -81 0 -114 25 -21 35 -23 152 -23 l124 0
0 -335 0 -335 -640 0 -640 0 0 335 0 335 124 0 c117 0 127 2 152 23 20 17 27
33 27 57 0 24 -7 40 -27 57 -26 22 -33 23 -207 23 -178 0 -180 0 -204 -25z"/>
<path d="M803 4479 c-70 -27 -136 -94 -162 -164 -21 -56 -21 -58 -21 -2065 0
-2007 0 -2009 21 -2065 27 -72 92 -137 164 -164 56 -21 62 -21 1755 -21 1693
0 1699 0 1755 21 72 27 137 92 164 165 l21 55 -2 2022 -3 2022 -22 47 c-29 63
-93 123 -159 148 -51 18 -77 20 -350 20 l-295 0 -24 -25 c-33 -32 -33 -78 0
-110 l24 -25 288 0 c268 0 290 -1 320 -20 68 -41 63 130 63 -2072 0 -1959 0
-1994 -20 -2025 -41 -68 97 -63 -1760 -63 -1857 0 -1719 -5 -1760 63 -20 31
-20 66 -20 2025 0 2202 -5 2031 63 2072 30 19 52 20 320 20 l288 0 24 25 c16
15 25 36 25 55 0 19 -9 40 -25 55 l-24 25 -298 -1 c-274 0 -302 -2 -350 -20z"/>
<path d="M1162 3957 l-22 -23 0 -1685 0 -1686 23 -21 23 -22 1375 0 1376 0 21
23 22 23 0 1685 0 1686 -23 21 c-22 20 -33 22 -158 22 -129 0 -137 -1 -157
-23 -22 -23 -28 -60 -16 -92 11 -28 60 -45 129 -45 l65 0 0 -1570 0 -1570
-1260 0 -1260 0 0 1570 0 1570 65 0 c69 0 118 17 129 45 13 34 6 72 -17 93
-22 20 -33 22 -158 22 -129 0 -137 -1 -157 -23z"/>
<path d="M2040 3457 c-14 -7 -65 -65 -114 -129 l-89 -118 -34 45 c-18 25 -45
48 -60 51 -57 15 -113 -35 -100 -87 6 -25 87 -139 135 -191 28 -31 76 -38 104
-15 38 30 268 350 268 372 0 27 -36 71 -65 79 -11 3 -31 0 -45 -7z"/>
<path d="M2406 3239 c-20 -16 -26 -29 -26 -59 0 -30 6 -43 26 -59 26 -21 35
-21 571 -21 l544 0 24 25 c33 32 33 78 0 110 l-24 25 -544 0 c-536 0 -545 0
-571 -21z"/>
<path d="M2040 2837 c-14 -7 -65 -65 -114 -129 l-89 -118 -33 44 c-49 64 -96
75 -139 31 -44 -43 -30 -81 82 -220 49 -60 72 -72 118 -61 31 8 285 348 285
381 0 27 -36 71 -65 79 -11 3 -31 0 -45 -7z"/>
<path d="M2406 2619 c-20 -16 -26 -29 -26 -59 0 -30 6 -43 26 -59 26 -21 35
-21 571 -21 l544 0 24 25 c33 32 33 78 0 110 l-24 25 -544 0 c-536 0 -545 0
-571 -21z"/>
<path d="M2040 2217 c-14 -7 -65 -65 -114 -129 l-89 -118 -33 44 c-49 64 -96
75 -139 31 -44 -43 -30 -81 82 -220 49 -60 72 -72 118 -61 31 8 285 348 285
381 0 27 -36 71 -65 79 -11 3 -31 0 -45 -7z"/>
<path d="M2406 1999 c-20 -16 -26 -29 -26 -59 0 -30 6 -43 26 -59 26 -21 35
-21 571 -21 l544 0 24 25 c33 32 33 78 0 110 l-24 25 -544 0 c-536 0 -545 0
-571 -21z"/>
<path d="M2040 1597 c-14 -7 -65 -65 -114 -129 l-89 -118 -33 44 c-49 64 -96
75 -139 31 -44 -43 -30 -81 82 -220 49 -60 72 -72 118 -61 31 8 285 348 285
381 0 27 -36 71 -65 79 -11 3 -31 0 -45 -7z"/>
<path d="M2406 1379 c-20 -16 -26 -29 -26 -59 0 -30 6 -43 26 -59 26 -21 35
-21 571 -21 l544 0 24 25 c33 32 33 78 0 110 l-24 25 -544 0 c-536 0 -545 0
-571 -21z"/>
</g>
</svg>
